<svg width="31" height="31" viewBox="0 0 31 31" fill="none" xmlns="http://www.w3.org/2000/svg">
<path d="M20.6667 22.375V18.5H11.625V13.3333H20.6667V9.45833L27.125 15.9167L20.6667 22.375ZM18.0833 3C18.7685 3 19.4256 3.27217 19.91 3.75664C20.3945 4.24111 20.6667 4.89819 20.6667 5.58333V8.16667H18.0833V5.58333H6.45833V26.25H18.0833V23.6667H20.6667V26.25C20.6667 26.9351 20.3945 27.5922 19.91 28.0767C19.4256 28.5612 18.7685 28.8333 18.0833 28.8333H6.45833C5.77319 28.8333 5.11611 28.5612 4.63164 28.0767C4.14717 27.5922 3.875 26.9351 3.875 26.25V5.58333C3.875 4.89819 4.14717 4.24111 4.63164 3.75664C5.11611 3.27217 5.77319 3 6.45833 3H18.0833Z" fill="white"/>
</svg>
