<svg width="26" height="26" viewBox="0 0 26 26" fill="none" xmlns="http://www.w3.org/2000/svg">
<path d="M13 5C18.4545 5 23.1127 8.31733 25 13C23.1127 17.6827 18.4545 21 13 21C7.54545 21 2.88727 17.6827 1 13C2.88727 8.31733 7.54545 5 13 5ZM13 18.3333C16.0109 18.3333 18.4545 15.944 18.4545 13C18.4545 10.056 16.0109 7.66667 13 7.66667C9.98909 7.66667 7.54545 10.056 7.54545 13C7.54545 15.944 9.98909 18.3333 13 18.3333ZM13 9.8C14.8109 9.8 16.2727 11.2293 16.2727 13C16.2727 14.7707 14.8109 16.2 13 16.2C11.1891 16.2 9.72727 14.7707 9.72727 13C9.72727 11.2293 11.1891 9.8 13 9.8Z" fill="#666666"/>
</svg>
