<svg width="30" height="30" viewBox="0 0 30 30" fill="none" xmlns="http://www.w3.org/2000/svg">
<path d="M25.08 10.3125C25.0801 10.2179 25.061 10.1242 25.0238 10.0371C24.9867 9.95008 24.9323 9.87146 24.8639 9.80602L18.3107 3.25289L18.3066 3.24914C18.2916 3.23431 18.2759 3.22015 18.2597 3.20672C18.2552 3.20297 18.2503 3.19969 18.2456 3.19617C18.2321 3.18563 18.2187 3.17508 18.2044 3.1657C18.2002 3.16289 18.1958 3.16055 18.1915 3.15785C18.1764 3.14801 18.161 3.13874 18.1452 3.13008C18.1423 3.12855 18.139 3.12727 18.1361 3.12574C18.1187 3.11661 18.101 3.10821 18.083 3.10055C18.081 3.09973 18.0789 3.09914 18.0769 3.09844C18.0577 3.09053 18.0381 3.0835 18.0183 3.07734L18.0123 3.07582C17.9923 3.06984 17.9721 3.06476 17.9517 3.06059C17.9466 3.05953 17.9412 3.05918 17.9358 3.05824C17.9185 3.05496 17.9011 3.05235 17.8836 3.05039C17.8603 3.04805 17.8369 3.04688 17.8134 3.04688H6.5625C6.12753 3.04737 5.71052 3.22038 5.40295 3.52795C5.09538 3.83552 4.92237 4.25253 4.92188 4.6875V25.3125C4.92237 25.7475 5.09538 26.1645 5.40295 26.472C5.71052 26.7796 6.12753 26.9526 6.5625 26.9531H23.4384C23.8734 26.9526 24.2904 26.7796 24.598 26.472C24.9056 26.1645 25.0786 25.7475 25.0791 25.3125V10.3313C25.0792 10.3249 25.08 10.3188 25.08 10.3125ZM18.5166 5.44746L22.6785 9.60938H18.5166V5.44746ZM23.4384 25.5469H6.5625C6.50036 25.5468 6.44078 25.5221 6.39684 25.4782C6.3529 25.4342 6.32819 25.3746 6.32812 25.3125V4.6875C6.32819 4.62536 6.3529 4.56578 6.39684 4.52184C6.44078 4.4779 6.50036 4.45319 6.5625 4.45312H17.1103V10.3125C17.1103 10.499 17.1844 10.6778 17.3163 10.8097C17.4481 10.9415 17.627 11.0156 17.8134 11.0156H23.6728V25.3125C23.6727 25.3746 23.648 25.4342 23.6041 25.4782C23.5602 25.5221 23.5006 25.5468 23.4384 25.5469ZM19.4541 15.9375C19.4541 16.124 19.38 16.3028 19.2481 16.4347C19.1163 16.5665 18.9374 16.6406 18.7509 16.6406H11.2509C11.0645 16.6406 10.8856 16.5665 10.7538 16.4347C10.6219 16.3028 10.5478 16.124 10.5478 15.9375C10.5478 15.751 10.6219 15.5722 10.7538 15.4403C10.8856 15.3085 11.0645 15.2344 11.2509 15.2344H18.7509C18.9374 15.2344 19.1163 15.3085 19.2481 15.4403C19.38 15.5722 19.4541 15.751 19.4541 15.9375ZM19.4541 19.6875C19.4541 19.874 19.38 20.0528 19.2481 20.1847C19.1163 20.3165 18.9374 20.3906 18.7509 20.3906H11.2509C11.0645 20.3906 10.8856 20.3165 10.7538 20.1847C10.6219 20.0528 10.5478 19.874 10.5478 19.6875C10.5478 19.501 10.6219 19.3222 10.7538 19.1903C10.8856 19.0585 11.0645 18.9844 11.2509 18.9844H18.7509C18.9374 18.9844 19.1163 19.0585 19.2481 19.1903C19.38 19.3222 19.4541 19.501 19.4541 19.6875Z" fill="#666666"/>
</svg>
