<?xml version="1.0" encoding="utf-8"?>
<!-- Svg Vector Icons : http://www.onlinewebfonts.com/icon -->
<!DOCTYPE svg PUBLIC "-//W3C//DTD SVG 1.1//EN" "http://www.w3.org/Graphics/SVG/1.1/DTD/svg11.dtd">
<svg version="1.1" xmlns="http://www.w3.org/2000/svg" xmlns:xlink="http://www.w3.org/1999/xlink" x="0px" y="0px" viewBox="0 0 1000 1000" enable-background="new 0 0 1000 1000" xml:space="preserve">
<metadata> Svg Vector Icons : http://www.onlinewebfonts.com/icon </metadata>
<g><path d="M922,584c-30.3,0-54.9,24.6-54.9,54.9v241.2H133V638.9c0-30.4-24.6-54.9-54.9-54.9c-30.3,0-54.9,24.6-54.9,54.9v296.2c0,30.3,24.6,54.9,54.9,54.9h844c30.3,0,54.9-24.6,54.9-54.9V638.9C976.9,608.6,952.3,584,922,584z"/><path d="M461.2,707.9c10.3,10.3,24.3,16.1,38.8,16.1c14.6,0,28.5-5.8,38.8-16.1l221.5-221.5c21.5-21.4,21.5-56.2,0-77.7c-21.4-21.5-56.2-21.5-77.7,0L554.9,536.4V64.9c0-30.3-24.6-54.9-54.9-54.9c-30.3,0-54.9,24.6-54.9,54.9v471.5L317.4,408.7c-21.5-21.5-56.3-21.4-77.7,0c-21.4,21.5-21.4,56.2,0,77.7L461.2,707.9z"/></g>
</svg>