<svg width="26" height="26" viewBox="0 0 26 26" fill="none" xmlns="http://www.w3.org/2000/svg">
<path d="M14.8298 10.3504L15.6474 11.1681L7.5952 19.2203H6.77754V18.4026L14.8298 10.3504ZM18.0293 5C17.8072 5 17.5761 5.08888 17.4072 5.25774L15.7808 6.88419L19.1136 10.2171L20.7401 8.59062C20.8225 8.5084 20.8878 8.41073 20.9324 8.30322C20.977 8.1957 21 8.08044 21 7.96404C21 7.84764 20.977 7.73238 20.9324 7.62487C20.8878 7.51735 20.8225 7.41968 20.7401 7.33746L18.6604 5.25774C18.4826 5.07999 18.2604 5 18.0293 5ZM14.8298 7.83517L5 17.6649V20.9978H8.33288L18.1627 11.1681L14.8298 7.83517Z" fill="#666666"/>
</svg>
