<svg width="22" height="28" viewBox="0 0 22 28" fill="none" xmlns="http://www.w3.org/2000/svg">
<path d="M3.00001 0.666656C2.29277 0.666656 1.61449 0.947608 1.11439 1.4477C0.614295 1.9478 0.333344 2.62608 0.333344 3.33332V24.6667C0.333344 25.3739 0.614295 26.0522 1.11439 26.5523C1.61449 27.0524 2.29277 27.3333 3.00001 27.3333H19C19.7073 27.3333 20.3855 27.0524 20.8856 26.5523C21.3857 26.0522 21.6667 25.3739 21.6667 24.6667V8.66666L13.6667 0.666656H3.00001ZM3.00001 3.33332H12.3333V9.99999H19V24.6667H3.00001V3.33332ZM5.66668 14V16.6667H16.3333V14H5.66668ZM5.66668 19.3333V22H12.3333V19.3333H5.66668Z" fill="#E31F27"/>
</svg>
