<svg width="18" height="20" viewBox="0 0 18 20" fill="none" xmlns="http://www.w3.org/2000/svg">
<path d="M12.2499 18.5367C12.2932 18.8617 12.1849 19.2083 11.9357 19.4358C11.8355 19.5363 11.7165 19.6159 11.5854 19.6703C11.4544 19.7247 11.3139 19.7526 11.172 19.7526C11.0301 19.7526 10.8896 19.7247 10.7586 19.6703C10.6275 19.6159 10.5085 19.5363 10.4082 19.4358L6.06406 15.0917C5.94591 14.9762 5.85607 14.8349 5.80157 14.6789C5.74707 14.5229 5.72938 14.3565 5.7499 14.1925V8.64583L0.560731 2.005C0.384807 1.77916 0.305426 1.49286 0.339935 1.20867C0.374443 0.924485 0.520036 0.665509 0.744898 0.488333C0.950731 0.336667 1.17823 0.25 1.41656 0.25H16.5832C16.8216 0.25 17.0491 0.336667 17.2549 0.488333C17.4798 0.665509 17.6254 0.924485 17.6599 1.20867C17.6944 1.49286 17.615 1.77916 17.4391 2.005L12.2499 8.64583V18.5367ZM3.62656 2.41667L7.91656 7.89833V13.8783L10.0832 16.045V7.8875L14.3732 2.41667H3.62656Z" fill="#666666"/>
</svg>
