<svg width="70" height="70" viewBox="0 0 70 70" fill="none" xmlns="http://www.w3.org/2000/svg">
  <path
    d="M32.0835 43.75H37.9168V49.5834H32.0835V43.75ZM32.0835 20.4167H37.9168V37.9167H32.0835V20.4167ZM35.0002 5.83337C18.871 5.83337 5.8335 18.9584 5.8335 35C5.8335 42.7355 8.9064 50.1542 14.3762 55.624C17.0846 58.3324 20.2999 60.4808 23.8386 61.9465C27.3772 63.4123 31.1699 64.1667 35.0002 64.1667C42.7356 64.1667 50.1543 61.0938 55.6241 55.624C61.0939 50.1542 64.1668 42.7355 64.1668 35C64.1668 31.1698 63.4124 27.3771 61.9467 23.8384C60.4809 20.2998 58.3325 17.0845 55.6241 14.3761C52.9157 11.6677 49.7004 9.51932 46.1618 8.05355C42.6231 6.58779 38.8304 5.83337 35.0002 5.83337ZM35.0002 58.3334C28.8118 58.3334 22.8769 55.8751 18.501 51.4992C14.1252 47.1234 11.6668 41.1884 11.6668 35C11.6668 28.8117 14.1252 22.8767 18.501 18.5009C22.8769 14.125 28.8118 11.6667 35.0002 11.6667C41.1886 11.6667 47.1235 14.125 51.4993 18.5009C55.8752 22.8767 58.3335 28.8117 58.3335 35C58.3335 41.1884 55.8752 47.1234 51.4993 51.4992C47.1235 55.8751 41.1886 58.3334 35.0002 58.3334Z"
    fill="#E31F27"/>
</svg>
