<svg width="26" height="26" viewBox="0 0 26 26" fill="none" xmlns="http://www.w3.org/2000/svg">
<path d="M13 4C8.02943 4 4 8.02943 4 13C4 17.9705 8.02943 22 13 22C17.9705 22 22 17.9705 22 13C21.9947 8.03165 17.9683 4.00531 13 4ZM8.00118 7.11652C9.3971 5.93185 11.1692 5.28284 13 5.28574C14.8233 5.28517 16.5873 5.9335 17.9763 7.11468L7.11208 17.9789C4.35803 14.7338 4.7561 9.87058 8.00118 7.11652ZM17.9988 18.8835C16.6029 20.0682 14.8308 20.7172 13 20.7143C11.1767 20.7148 9.41269 20.0665 8.02367 18.8853L18.888 8.02103C21.642 11.2662 21.2439 16.1294 17.9988 18.8835Z" fill="#666666"/>
</svg>
