<svg width="30" height="30" viewBox="0 0 30 30" fill="none" xmlns="http://www.w3.org/2000/svg">
<path d="M16.0374 0V2C22.1024 2 27.0374 6.935 27.0374 13H29.0374C29.0374 5.832 23.2054 0 16.0374 0ZM5.68741 3.006C5.16341 3.006 4.63841 3.177 4.21141 3.521L4.16241 3.561L1.01741 6.805L1.08441 6.742C0.0444113 7.638 -0.243589 9.054 0.203411 10.244C1.04641 12.674 3.19341 17.373 7.43241 21.605C11.6784 25.857 16.4264 27.913 18.7754 28.83L18.7994 28.838L18.8224 28.846C19.4105 29.0404 20.039 29.0793 20.6465 28.9587C21.2541 28.8381 21.8201 28.5623 22.2894 28.158L22.3194 28.133L25.4434 25.008C26.2734 24.178 26.2734 22.724 25.4434 21.895L21.3464 17.793C20.5144 16.961 19.0604 16.961 18.2284 17.793L16.2444 19.777C15.5344 19.438 13.7864 18.559 12.1244 16.975C10.4864 15.411 9.64941 13.605 9.34641 12.906L11.3464 10.906C12.2234 10.029 12.2734 8.522 11.2624 7.716L11.3534 7.801L7.21141 3.561L7.16441 3.521C6.74537 3.18564 6.22412 3.00389 5.68741 3.006ZM16.0374 4V6C19.8964 6 23.0374 9.14 23.0374 13H25.0374C25.0374 8.038 21.0004 4 16.0374 4ZM5.68941 5C5.76141 5 5.83141 5.027 5.90041 5.08L9.96741 9.244L10.0164 9.284C10.0044 9.274 10.0544 9.37 9.93241 9.492L6.97541 12.45L7.20341 13.054C7.20341 13.054 8.33241 16.122 10.7444 18.423C13.1164 20.685 16.0414 21.921 16.0414 21.921L16.6644 22.187L19.6424 19.208C19.8114 19.04 19.7634 19.04 19.9324 19.208L24.0294 23.31C24.1994 23.48 24.1994 23.424 24.0294 23.595L20.9824 26.642C20.5184 27.036 20.0394 27.139 19.4624 26.948C17.2014 26.064 12.7764 24.128 8.84641 20.192C4.88841 16.239 2.83641 11.748 2.08441 9.572L2.08041 9.56L2.07441 9.546C1.92341 9.146 2.03441 8.565 2.38941 8.259L2.42241 8.229L5.47641 5.08C5.53664 5.03056 5.61153 5.00243 5.68941 5ZM16.0374 8V10C17.6914 10 19.0374 11.346 19.0374 13H21.0374C21.0374 10.243 18.7944 8 16.0374 8Z" fill="#E31F27"/>
</svg>
