<svg width="30" height="30" viewBox="0 0 30 30" fill="none" xmlns="http://www.w3.org/2000/svg">
<path d="M24.6875 8.67188H23.2031V4.6875C23.2031 4.50102 23.129 4.32218 22.9972 4.19032C22.8653 4.05845 22.6865 3.98438 22.5 3.98438H7.5C7.31352 3.98438 7.13468 4.05845 7.00282 4.19032C6.87095 4.32218 6.79688 4.50102 6.79688 4.6875V8.67188H5.31258C3.80461 8.67188 2.57813 9.82852 2.57813 11.25V20.625C2.57812 20.8115 2.6522 20.9903 2.78407 21.1222C2.91593 21.254 3.09477 21.3281 3.28125 21.3281H6.79688V25.7812C6.79688 25.9677 6.87095 26.1466 7.00282 26.2784C7.13468 26.4103 7.31352 26.4844 7.5 26.4844H22.5C22.6865 26.4844 22.8653 26.4103 22.9972 26.2784C23.129 26.1466 23.2031 25.9677 23.2031 25.7812V21.3281H26.7188C26.9052 21.3281 27.0841 21.254 27.2159 21.1222C27.3478 20.9903 27.4219 20.8115 27.4219 20.625V11.25C27.4219 9.82852 26.1953 8.67188 24.6875 8.67188ZM8.20312 5.39062H21.7969V8.67188H8.20312V5.39062ZM21.7969 25.0781H8.20312V18.5156H21.7969V25.0781ZM26.0156 19.9219H23.2031V17.8125C23.2031 17.626 23.129 17.4472 22.9972 17.3153C22.8653 17.1835 22.6865 17.1094 22.5 17.1094H7.5C7.31352 17.1094 7.13468 17.1835 7.00282 17.3153C6.87095 17.4472 6.79688 17.626 6.79688 17.8125V19.9219H3.98438V11.25C3.98438 10.6038 4.58016 10.0781 5.31258 10.0781H24.6874C25.4198 10.0781 26.0156 10.6038 26.0156 11.25V19.9219ZM23.2038 13.5938C23.2038 13.8255 23.1351 14.0521 23.0063 14.2448C22.8776 14.4375 22.6945 14.5877 22.4804 14.6764C22.2663 14.7651 22.0307 14.7883 21.8033 14.7431C21.576 14.6979 21.3672 14.5863 21.2033 14.4224C21.0394 14.2585 20.9278 14.0497 20.8826 13.8224C20.8374 13.595 20.8606 13.3594 20.9493 13.1453C21.038 12.9312 21.1882 12.7481 21.3809 12.6194C21.5736 12.4906 21.8002 12.4219 22.032 12.4219C22.3426 12.4222 22.6405 12.5458 22.8602 12.7655C23.0799 12.9852 23.2035 13.2831 23.2038 13.5938Z" fill="#666666"/>
</svg>
