<svg width="24" height="24" viewBox="0 0 24 24" fill="none" xmlns="http://www.w3.org/2000/svg">
<path d="M13.6889 9.55417L14.4436 10.3089L7.01081 17.7418H6.25604V16.987L13.6889 9.55417ZM16.6423 4.61536C16.4372 4.61536 16.2239 4.6974 16.068 4.85327L14.5667 6.35461L17.6432 9.43111L19.1445 7.92978C19.2206 7.85388 19.2809 7.76373 19.3221 7.66448C19.3633 7.56523 19.3845 7.45884 19.3845 7.3514C19.3845 7.24395 19.3633 7.13756 19.3221 7.03831C19.2809 6.93906 19.2206 6.84891 19.1445 6.77301L17.2248 4.85327C17.0607 4.68919 16.8556 4.61536 16.6423 4.61536ZM13.6889 7.23244L4.61523 16.3061V19.3826H7.69174L16.7654 10.3089L13.6889 7.23244Z" fill="#666666"/>
</svg>
